<?xml version="1.0" encoding="utf-8"?>
<svg width="414" height="500" viewBox="0 0 414 500" xmlns="http://www.w3.org/2000/svg">
<rect id="frame" x="0" y="0" width="414" height="500" fill="#f7f7f7" stroke="none" stroke-width="0"/>

<!-- Association lier -->
<g>
	<line x1="170" y1="187" x2="170" y2="43" stroke="#8073ac" stroke-width="2"/>
	<text x="175" y="94" fill="#b35806" font-family="Verdana" font-size="12">1,N</text>
	<polygon points="170 77 176 89 170 85 164 89" fill="#8073ac" stroke-width="0"/>
	<line x1="272" y1="43" x2="170" y2="43" stroke="#8073ac" stroke-width="2"/>
	<text x="209" y="60" fill="#b35806" font-family="Verdana" font-size="12">0,N</text>
	<polygon points="236 43 224 49 228 43 224 37" fill="#8073ac" stroke-width="0"/>
	<g>
		<path d="M178 9 a14 14 90 0 1 14 14 V34 h-44 V23 a14 14 90 0 1 14 -14" fill="#b2abd2" stroke="#b2abd2" stroke-width="0"/>
		<path d="M192 34 v29 a14 14 90 0 1 -14 14 H162 a14 14 90 0 1 -14 -14 V34 H44" fill="#d8daeb" stroke="#d8daeb" stroke-width="0"/>
		<rect x="148" y="9" width="44" height="68" fill="none" rx="14" stroke="#8073ac" stroke-width="2"/>
		<line x1="148" y1="34" x2="192" y2="34" stroke="#8073ac" stroke-width="1"/>
		<text x="160" y="26.75" fill="#000" font-family="Verdana" font-size="12">lier</text>
		<text x="155" y="51.8" fill="#000" font-family="Verdana" font-size="12">ref</text>
		<text x="155" y="68.8" fill="#000" font-family="Verdana" font-size="12">price</text>
	</g>
</g>

<!-- Association noter -->
<g>
	<line x1="50" y1="331" x2="50" y2="187" stroke="#8073ac" stroke-width="2"/>
	<text x="55" y="255" fill="#b35806" font-family="Verdana" font-size="12">0,N</text>
	<polygon points="50 212 56 224 50 220 44 224" fill="#8073ac" stroke-width="0"/>
	<line x1="170" y1="187" x2="50" y2="187" stroke="#8073ac" stroke-width="2"/>
	<text x="96" y="204" fill="#b35806" font-family="Verdana" font-size="12">0,N</text>
	<polygon points="123 187 111 193 115 187 111 181" fill="#8073ac" stroke-width="0"/>
	<g>
		<path d="M77 162 a14 14 90 0 1 14 14 V187 h-82 V176 a14 14 90 0 1 14 -14" fill="#b2abd2" stroke="#b2abd2" stroke-width="0"/>
		<path d="M91 187 v11 a14 14 90 0 1 -14 14 H23 a14 14 90 0 1 -14 -14 V187 H82" fill="#d8daeb" stroke="#d8daeb" stroke-width="0"/>
		<rect x="9" y="162" width="82" height="50" fill="none" rx="14" stroke="#8073ac" stroke-width="2"/>
		<line x1="9" y1="187" x2="91" y2="187" stroke="#8073ac" stroke-width="1"/>
		<text x="34" y="179.75" fill="#000" font-family="Verdana" font-size="12">noter</text>
		<text x="16" y="204.8" fill="#000" font-family="Verdana" font-size="12">vote_count</text>
	</g>
</g>

<!-- Association avoir -->
<g>
	<line x1="170" y1="187" x2="272" y2="187" stroke="#8073ac" stroke-width="2"/>
	<text x="222" y="204" fill="#b35806" font-family="Verdana" font-size="12">1,1</text>
	<polygon points="249 187 237 193 241 187 237 181" fill="#8073ac" stroke-width="0"/>
	<line x1="366" y1="187" x2="272" y2="187" stroke="#8073ac" stroke-width="2"/>
	<text x="300" y="204" fill="#b35806" font-family="Verdana" font-size="12">0,N</text>
	<polygon points="327 187 315 193 319 187 315 181" fill="#8073ac" stroke-width="0"/>
	<g>
		<path d="M281 162 a14 14 90 0 1 14 14 V187 h-46 V176 a14 14 90 0 1 14 -14" fill="#b2abd2" stroke="#b2abd2" stroke-width="0"/>
		<path d="M295 187 v11 a14 14 90 0 1 -14 14 H263 a14 14 90 0 1 -14 -14 V187 H46" fill="#d8daeb" stroke="#d8daeb" stroke-width="0"/>
		<rect x="249" y="162" width="46" height="50" fill="none" rx="14" stroke="#8073ac" stroke-width="2"/>
		<line x1="249" y1="187" x2="295" y2="187" stroke="#8073ac" stroke-width="1"/>
		<text x="257" y="179.75" fill="#000" font-family="Verdana" font-size="12">avoir</text>
	</g>
</g>

<!-- Association inclure -->
<g>
	<line x1="170" y1="449" x2="170" y2="331" stroke="#8073ac" stroke-width="2"/>
	<text x="175" y="399" fill="#b35806" font-family="Verdana" font-size="12">1,N</text>
	<polygon points="170 365 176 377 170 373 164 377" fill="#8073ac" stroke-width="0"/>
	<line x1="170" y1="187" x2="170" y2="331" stroke="#8073ac" stroke-width="2"/>
	<text x="175" y="289" fill="#b35806" font-family="Verdana" font-size="12">0,N</text>
	<polygon points="170 272 176 284 170 280 164 284" fill="#8073ac" stroke-width="0"/>
	<g>
		<path d="M197 297 a14 14 90 0 1 14 14 V322 h-82 V311 a14 14 90 0 1 14 -14" fill="#b2abd2" stroke="#b2abd2" stroke-width="0"/>
		<path d="M211 322 v29 a14 14 90 0 1 -14 14 H143 a14 14 90 0 1 -14 -14 V322 H82" fill="#d8daeb" stroke="#d8daeb" stroke-width="0"/>
		<rect x="129" y="297" width="82" height="68" fill="none" rx="14" stroke="#8073ac" stroke-width="2"/>
		<line x1="129" y1="322" x2="211" y2="322" stroke="#8073ac" stroke-width="1"/>
		<text x="150" y="314.75" fill="#000" font-family="Verdana" font-size="12">inclure</text>
		<text x="136" y="339.8" fill="#000" font-family="Verdana" font-size="12">quantity</text>
		<text x="136" y="356.8" fill="#000" font-family="Verdana" font-size="12">ref product</text>
	</g>
</g>

<!-- Association passer -->
<g>
	<line x1="50" y1="331" x2="50" y2="449" stroke="#8073ac" stroke-width="2"/>
	<text x="55" y="416" fill="#b35806" font-family="Verdana" font-size="12">0,N</text>
	<polygon points="50 424 44 412 50 416 56 412" fill="#8073ac" stroke-width="0"/>
	<line x1="170" y1="449" x2="50" y2="449" stroke="#8073ac" stroke-width="2"/>
	<text x="98" y="466" fill="#b35806" font-family="Verdana" font-size="12">1,1</text>
	<polygon points="124 449 112 455 116 449 112 443" fill="#8073ac" stroke-width="0"/>
	<g>
		<path d="M63 424 a14 14 90 0 1 14 14 V449 h-54 V438 a14 14 90 0 1 14 -14" fill="#b2abd2" stroke="#b2abd2" stroke-width="0"/>
		<path d="M77 449 v11 a14 14 90 0 1 -14 14 H37 a14 14 90 0 1 -14 -14 V449 H54" fill="#d8daeb" stroke="#d8daeb" stroke-width="0"/>
		<rect x="23" y="424" width="54" height="50" fill="none" rx="14" stroke="#8073ac" stroke-width="2"/>
		<line x1="23" y1="449" x2="77" y2="449" stroke="#8073ac" stroke-width="1"/>
		<text x="30" y="441.75" fill="#000" font-family="Verdana" font-size="12">passer</text>
	</g>
</g>

<!-- Entity packaging -->
<g>
	<g>
		<rect x="236" y="9" width="72" height="25" fill="#fdb863" stroke="#fdb863" stroke-width="0" opacity="1"/>
		<rect x="236" y="34" width="72" height="43" fill="#fee0b6" stroke="#fee0b6" stroke-width="0" opacity="1"/>
		<rect x="236" y="9" width="72" height="68" fill="none" stroke="#e08214" stroke-width="2" opacity="1"/>
		<line x1="236" y1="34" x2="308" y2="34" stroke="#e08214" stroke-width="1"/>
	</g>
	<text x="241" y="26.75" fill="#000" font-family="Verdana" font-size="12">packaging</text>
	<text x="241" y="51.8" fill="#000" font-family="Verdana" font-size="12">id</text>
	<line x1="241" y1="54" x2="253" y2="54" stroke="#000" stroke-width="1"/>
	<text x="241" y="68.8" fill="#000" font-family="Verdana" font-size="12">package</text>
</g>

<!-- Entity thé -->
<g>
	<g>
		<rect x="123" y="102" width="94" height="25" fill="#fdb863" stroke="#fdb863" stroke-width="0" opacity="1"/>
		<rect x="123" y="127" width="94" height="145" fill="#fee0b6" stroke="#fee0b6" stroke-width="0" opacity="1"/>
		<rect x="123" y="102" width="94" height="170" fill="none" stroke="#e08214" stroke-width="2" opacity="1"/>
		<line x1="123" y1="127" x2="217" y2="127" stroke="#e08214" stroke-width="1"/>
	</g>
	<text x="160" y="119.75" fill="#000" font-family="Verdana" font-size="12">thé</text>
	<text x="128" y="144.8" fill="#000" font-family="Verdana" font-size="12">id</text>
	<line x1="128" y1="147" x2="140" y2="147" stroke="#000" stroke-width="1"/>
	<text x="128" y="161.8" fill="#000" font-family="Verdana" font-size="12">label_1</text>
	<text x="128" y="178.8" fill="#000" font-family="Verdana" font-size="12">label_2</text>
	<text x="128" y="195.8" fill="#000" font-family="Verdana" font-size="12">description</text>
	<text x="128" y="212.8" fill="#000" font-family="Verdana" font-size="12">url_tea</text>
	<text x="128" y="229.8" fill="#000" font-family="Verdana" font-size="12">url_image</text>
	<text x="128" y="246.8" fill="#000" font-family="Verdana" font-size="12">vote_average</text>
	<text x="128" y="263.8" fill="#000" font-family="Verdana" font-size="12">our_favorite</text>
</g>

<!-- Entity catégorie -->
<g>
	<g>
		<rect x="327" y="136" width="78" height="25" fill="#fdb863" stroke="#fdb863" stroke-width="0" opacity="1"/>
		<rect x="327" y="161" width="78" height="77" fill="#fee0b6" stroke="#fee0b6" stroke-width="0" opacity="1"/>
		<rect x="327" y="136" width="78" height="102" fill="none" stroke="#e08214" stroke-width="2" opacity="1"/>
		<line x1="327" y1="161" x2="405" y2="161" stroke="#e08214" stroke-width="1"/>
	</g>
	<text x="338" y="153.75" fill="#000" font-family="Verdana" font-size="12">catégorie</text>
	<text x="332" y="178.8" fill="#000" font-family="Verdana" font-size="12">id</text>
	<line x1="332" y1="181" x2="344" y2="181" stroke="#000" stroke-width="1"/>
	<text x="332" y="195.8" fill="#000" font-family="Verdana" font-size="12">label</text>
	<text x="332" y="212.8" fill="#000" font-family="Verdana" font-size="12">description</text>
	<text x="332" y="229.8" fill="#000" font-family="Verdana" font-size="12">url_image</text>
</g>

<!-- Entity utilisateur -->
<g>
	<g>
		<rect x="12" y="263" width="76" height="25" fill="#fdb863" stroke="#fdb863" stroke-width="0" opacity="1"/>
		<rect x="12" y="288" width="76" height="111" fill="#fee0b6" stroke="#fee0b6" stroke-width="0" opacity="1"/>
		<rect x="12" y="263" width="76" height="136" fill="none" stroke="#e08214" stroke-width="2" opacity="1"/>
		<line x1="12" y1="288" x2="88" y2="288" stroke="#e08214" stroke-width="1"/>
	</g>
	<text x="20" y="280.75" fill="#000" font-family="Verdana" font-size="12">utilisateur</text>
	<text x="17" y="305.8" fill="#000" font-family="Verdana" font-size="12">id</text>
	<line x1="17" y1="308" x2="29" y2="308" stroke="#000" stroke-width="1"/>
	<text x="17" y="322.8" fill="#000" font-family="Verdana" font-size="12">label</text>
	<text x="17" y="339.8" fill="#000" font-family="Verdana" font-size="12">email</text>
	<text x="17" y="356.8" fill="#000" font-family="Verdana" font-size="12">password</text>
	<text x="17" y="373.8" fill="#000" font-family="Verdana" font-size="12">role</text>
	<text x="17" y="390.8" fill="#000" font-family="Verdana" font-size="12">created_at</text>
</g>

<!-- Entity commande -->
<g>
	<g>
		<rect x="124" y="407" width="92" height="25" fill="#fdb863" stroke="#fdb863" stroke-width="0" opacity="1"/>
		<rect x="124" y="432" width="92" height="59" fill="#fee0b6" stroke="#fee0b6" stroke-width="0" opacity="1"/>
		<rect x="124" y="407" width="92" height="84" fill="none" stroke="#e08214" stroke-width="2" opacity="1"/>
		<line x1="124" y1="432" x2="216" y2="432" stroke="#e08214" stroke-width="1"/>
	</g>
	<text x="137" y="424.75" fill="#000" font-family="Verdana" font-size="12">commande</text>
	<text x="129" y="449.8" fill="#000" font-family="Verdana" font-size="12">id</text>
	<line x1="129" y1="452" x2="141" y2="452" stroke="#000" stroke-width="1"/>
	<text x="129" y="466.8" fill="#000" font-family="Verdana" font-size="12">total_amount</text>
	<text x="129" y="483.8" fill="#000" font-family="Verdana" font-size="12">order_date</text>
</g>
</svg>